<svg width="24" height="24" viewBox="0 0 24 24" fill="none" xmlns="http://www.w3.org/2000/svg">
  <path d="M12 4V7" stroke="currentColor" stroke-width="1.5" stroke-linecap="round"/>
  <path d="M8 7H16" stroke="currentColor" stroke-width="1.5" stroke-linecap="round"/>
  <path d="M7 9L17 9C18.1046 9 19 9.89543 19 11L19 16C19 18.2091 17.2091 20 15 20L9 20C6.79086 20 5 18.2091 5 16L5 11C5 9.89543 5.89543 9 7 9Z" stroke="currentColor" stroke-width="1.5"/>
  <path d="M9 13L11 15M15 13L13 15" stroke="currentColor" stroke-width="1.5" stroke-linecap="round"/>
  <path d="M11 13L9 15M13 13L15 15" stroke="currentColor" stroke-width="1.5" stroke-linecap="round"/>
  <path d="M8 9V7M16 9V7" stroke="currentColor" stroke-width="1.5" stroke-linecap="round"/>
</svg>