<svg width="24" height="24" viewBox="0 0 24 24" fill="none" xmlns="http://www.w3.org/2000/svg">
  <path d="M7 8C7 6.89543 7.89543 6 9 6H15C16.1046 6 17 6.89543 17 8V10C17 11.1046 16.1046 12 15 12H9C7.89543 12 7 11.1046 7 10V8Z" stroke="currentColor" stroke-width="1.5"/>
  <path d="M9 12V16C9 17.1046 9.89543 18 11 18H13C14.1046 18 15 17.1046 15 16V12" stroke="currentColor" stroke-width="1.5"/>
  <path d="M12 6V4" stroke="currentColor" stroke-width="1.5" stroke-linecap="round"/>
  <path d="M10 14H14M10 16H14" stroke="currentColor" stroke-width="1.5" stroke-linecap="round"/>
  <path d="M7 9H17" stroke="currentColor" stroke-width="1.5" stroke-linecap="round"/>
</svg>